HIERARCHY
ROOT Spine
{
    OFFSET 0.0 0.0 -0.0
    CHANNELS 6 Xposition Yposition Zposition Zrotation Xrotation Yrotation
    JOINT ShoulderCenter
    {
        OFFSET 0.0 32.14043045043945 0.0
        CHANNELS 3 Zrotation Xrotation Yrotation
        JOINT LeftShoulder
        {
            OFFSET 20.30788230895996 0.0 0.0
            CHANNELS 3 Zrotation Xrotation Yrotation
            JOINT LeftElbow
            {
                OFFSET 27.910465240478516 0.0 0.0
                CHANNELS 3 Zrotation Xrotation Yrotation
                JOINT LeftHand
                {
                    OFFSET 31.1745662689209 0.0 0.0
                    CHANNELS 3 Zrotation Xrotation Yrotation
                    End Site
                    {
                        OFFSET 12.469825744628906 0.0 0.0
                    }
                }
            }
        }
        JOINT RightShoulder
        {
            OFFSET -20.30788230895996 0.0 0.0
            CHANNELS 3 Zrotation Xrotation Yrotation
            JOINT RightElbow
            {
                OFFSET -27.910465240478516 0.0 0.0
                CHANNELS 3 Zrotation Xrotation Yrotation
                JOINT RightHand
                {
                    OFFSET -31.1745662689209 0.0 0.0
                    CHANNELS 3 Zrotation Xrotation Yrotation
                    End Site
                    {
                        OFFSET -12.469825744628906 0.0 0.0
                    }
                }
            }
        }
        End Site
        {
            OFFSET 0.0 12.856170654296875 0.0
        }
    }
    JOINT LeftHip
    {
        OFFSET 16.785262274537658 -16.785262274537658 0.0
        CHANNELS 3 Zrotation Xrotation Yrotation
        JOINT LeftKnee
        {
            OFFSET 0.0 -42.84436798095703 0.0
            CHANNELS 3 Zrotation Xrotation Yrotation
            JOINT LeftFoot
            {
                OFFSET 0.0 -44.21392822265625 0.0
                CHANNELS 3 Zrotation Xrotation Yrotation
                End Site
                {
                    OFFSET 0.0 0.0 17.685569763183594
                }
            }
        }
    }
    JOINT RightHip
    {
        OFFSET -16.785262274537658 -16.785262274537658 0.0
        CHANNELS 3 Zrotation Xrotation Yrotation
        JOINT RightKnee
        {
            OFFSET 0.0 -42.84436798095703 0.0
            CHANNELS 3 Zrotation Xrotation Yrotation
            JOINT RightFoot
            {
                OFFSET 0.0 -44.21392822265625 0.0
                CHANNELS 3 Zrotation Xrotation Yrotation
                End Site
                {
                    OFFSET 0.0 0.0 17.685569763183594
                }
            }
        }
    }
}
MOTION
Frames: 6
Frame Time: 0.03333333333333333
52.79999923706055 7.100000381469727 -191.3000030517578 0.5439364590776214 10.22461794649692 3.490514986865445 3.583827775991949e-08 -8.620638807769818e-08 -14.999121752500166 112.17153625113644 -25.919701296374345 -175.39787465859945 2.7632990025071972e-06 -1.7644467551279455e-06 110.7199030350048 3.180554681463516e-15 6.361109362927033e-15 3.180554681463516e-15 -93.73958616383369 -6.594049339000131 -134.85595170222123 1.5815505111808637e-06 1.896250636216737e-06 -87.36408503773164 -5.565970692561154e-15 -1.5448672043175555e-31 3.1805546814635168e-15 -3.790527485173973 11.113453596539268 -36.89403262968182 -5.901092282477738 12.723167373683719 -15.330144240935214 3.1805546814635168e-15 -2.3854160110976376e-15 -1.5902773407317584e-15 7.04228014127663 -41.368770517401394 -41.233467402025575 -28.077450175511217 16.28273992529742 47.90300137778002 0.0 0.0 3.6282084348482134e-16
52.39999771118164 7.500000476837158 -183.6999969482422 0.9065033150350228 9.872248319513442 3.439527430321925 -2.3039308577093247e-07 -8.201462944541297e-07 -14.276742263460637 110.07566341647734 -29.71973994827313 -179.78021244206255 -3.4108902445777293e-08 -6.098852482127966e-06 107.75514786840515 0.0 0.0 0.0 -92.76770942866 -5.545604466659791 -138.62218381728212 -1.1449660555870627e-06 4.859609657059946e-06 -88.09182102182885 -7.156248033292912e-15 -1.9862578341225716e-31 3.1805546814635164e-15 -4.022433169071675 8.347981265260362 -32.552801976988455 -10.69531922494837 21.88356671983548 -21.60847374807387 -3.1805546814635168e-15 1.7655625192200634e-31 -6.3611093629270335e-15 6.2022143337664675 -38.66955198184258 -40.87624199229151 -20.188112002782276 12.384530530602275 31.873794184987947 0.0 0.0 -3.1060104311167167e-16
52.20000076293945 6.700000286102295 -176.3000030517578 1.631396684056463 9.869563148328151 2.144210163797685 1.888866425208549e-07 -3.118033829377569e-07 -12.83514066515313 104.40025534696731 -30.543283787700293 172.41128669621008 1.3178533912114511e-06 2.9699030237412217e-07 104.91160817883905 6.361109362927033e-15 0.0 0.0 -92.35877925807299 -6.184056970752164 -145.21168514089274 -2.1482493398790927e-06 -1.1272229348845408e-06 -90.12326171182727 6.3611093629270335e-15 0.0 0.0 -4.377233131639396 1.095635168240557 -21.75805227534277 -14.997844319331648 39.966055615986605 -33.477456674011506 3.1805546814635168e-15 6.3611093629270335e-15 3.1805546814635168e-15 6.269005177508461 -36.11222419459596 -37.766718677250324 -18.36708094834467 12.740460349096338 31.7630186727917 3.975693351829397e-16 2.4848083448933737e-17 2.3605679276487042e-15
52.0 4.800000190734863 -169.1999969482422 2.5529011111228677 10.983111433155454 -0.12335630039084347 1.3275182108051253e-07 5.444766440794569e-07 -9.734485406770379 100.49452251456991 -29.477514087124593 166.04672911179418 -1.5715130803194008e-06 -3.2651087524821717e-06 100.16693994215859 0.0 0.0 0.0 -94.24326123539286 -8.026909827422541 -156.59012090123343 -2.7579499696960156e-06 3.3821122284331795e-06 -92.69904128971429 -8.827812596100317e-32 3.1805546814635168e-15 3.1805546814635168e-15 -3.6441250544711368 -8.694740568504585 -8.476763626043038 -11.9095535535037 61.37483904414078 -49.9174773327535 5.29668755766019e-31 9.541664044390553e-15 -6.361109362927035e-15 7.297264306469978 -33.8643577804543 -28.984365643467743 -17.274994114315707 17.900710618191326 39.981582534816575 -1.637973040292051e-33 1.9878466759146985e-16 9.442271710594817e-16
52.0 2.6000001430511475 -162.3000030517578 3.6677883213548883 13.3164685536745 -4.835195383260513 -3.0791721891320765e-07 -9.766625355485665e-07 -5.2604605151320945 98.9114636815665 -25.243327942348483 161.5868805570631 -3.1241178240911756e-06 1.085224918269921e-06 92.96078112163327 1.5902773407317584e-15 0.0 0.0 -98.77710019818524 -11.043822358124606 -173.12940228804285 2.3348245606395876e-06 1.048777911275049e-06 -95.68026207424745 -3.1805546814635168e-15 -1.7655625192200634e-31 6.3611093629270335e-15 -0.9729323915726622 -21.782067013058583 18.4732552246803 56.0307070755014 72.36838963330308 -126.49425518956765 -1.7655625192200634e-31 6.3611093629270335e-15 3.1805546814635168e-15 10.48567184374316 -34.38217658693337 -20.41720397828721 -19.803063882534435 23.20016607765055 46.74889615070473 7.951386703658792e-16 8.945310041616142e-16 1.341796506242421e-15
52.0 1.4000000953674316 -155.3000030517578 4.794236166800717 14.421779330874124 -10.829215420779665 -4.7510604543211637e-07 1.2733609359406295e-07 0.4386798924740696 97.414470308003 -20.212966510152995 154.0809933264849 -8.281782985631688e-07 -3.248971065606625e-08 88.23033495950138 -1.5902773407317584e-15 8.827812596100317e-32 -6.3611093629270335e-15 -104.94470376645437 -13.183879073074788 170.41384114195458 2.3006803849812456e-06 9.584859762998661e-07 -99.24921349345858 6.361109362927033e-15 0.0 0.0 4.533199162935319 -33.58425654457232 51.779598520311275 93.22529234342134 50.07145498529077 -165.15261563139617 3.1805546814635176e-15 3.1805546814635176e-15 -8.827812596100317e-32 11.028324042229093 -31.172661372339377 -13.181842663723385 -17.075490922627978 26.020992284822288 46.4294527523948 0.0 0.0 -6.957463365701442e-16
